<svg xmlns="http://www.w3.org/2000/svg" width="1200" height="630" viewBox="0 0 1200 630" role="img" aria-labelledby="title desc">
  <title id="title">APIAutopsy</title>
  <desc id="desc">API testing and monitoring in one secure workspace.</desc>
  <defs>
    <radialGradient id="teal" cx="22%" cy="18%" r="58%">
      <stop offset="0%" stop-color="#2DD4BF" stop-opacity="0.45"/>
      <stop offset="100%" stop-color="#2DD4BF" stop-opacity="0"/>
    </radialGradient>
    <radialGradient id="indigo" cx="78%" cy="16%" r="55%">
      <stop offset="0%" stop-color="#6366F1" stop-opacity="0.5"/>
      <stop offset="100%" stop-color="#6366F1" stop-opacity="0"/>
    </radialGradient>
    <linearGradient id="panel" x1="0" x2="1" y1="0" y2="1">
      <stop offset="0%" stop-color="#121A2A"/>
      <stop offset="100%" stop-color="#080B13"/>
    </linearGradient>
  </defs>
  <rect width="1200" height="630" fill="#0C0F17"/>
  <rect width="1200" height="630" fill="url(#teal)"/>
  <rect width="1200" height="630" fill="url(#indigo)"/>
  <rect x="74" y="70" width="1052" height="490" rx="44" fill="url(#panel)" stroke="#26364F" stroke-width="2"/>
  <g transform="translate(116 128)">
    <rect width="96" height="96" rx="26" fill="#08111F"/>
    <path d="M28 62c0-21.5 17.5-39 39-39h4" fill="none" stroke="#2DD4BF" stroke-width="10" stroke-linecap="round"/>
    <path d="M30 70h13V47h18v23h13V37" fill="none" stroke="#FFFFFF" stroke-width="9" stroke-linecap="round" stroke-linejoin="round"/>
    <path d="M66 70 86 90" fill="none" stroke="#6366F1" stroke-width="10" stroke-linecap="round"/>
    <circle cx="70" cy="24" r="16" fill="#0F172A" stroke="#2DD4BF" stroke-width="5"/>
    <path d="m62 24 6 6 12-14" fill="none" stroke="#E5E7EB" stroke-width="4" stroke-linecap="round" stroke-linejoin="round"/>
  </g>
  <text x="116" y="300" fill="#FFFFFF" font-family="Inter, Arial, sans-serif" font-size="82" font-weight="800" letter-spacing="0">APIAutopsy</text>
  <text x="116" y="374" fill="#CBD5E1" font-family="Inter, Arial, sans-serif" font-size="34" font-weight="500" letter-spacing="0">Postman-style API testing with monitoring built in.</text>
  <g transform="translate(116 435)">
    <rect width="220" height="54" rx="18" fill="#2DD4BF"/>
    <text x="28" y="36" fill="#04111D" font-family="Inter, Arial, sans-serif" font-size="23" font-weight="800">Try APIAutopsy</text>
    <rect x="246" width="282" height="54" rx="18" fill="#111827" stroke="#334155"/>
    <text x="274" y="36" fill="#E5E7EB" font-family="Inter, Arial, sans-serif" font-size="22" font-weight="700">Schedule API checks</text>
  </g>
</svg>
